<svg xmlns="http://www.w3.org/2000/svg" width="180" height="23" fill="none" viewBox="0 0 180 23"><path fill="#fff" d="M91.44 21.476h-3.307l2.33-5.26-4.66-10.476h3.329l2.715 6.567c.096.23.421.229.515 0l2.696-6.567h3.351z"/><path fill="#fff" d="M81.393 16.837V8.403h-2.241V5.74h2.241V4.297q0-1.976 1.199-3.107Q83.79.058 85.632.058q1.132 0 1.932.244v2.686q-.533-.2-1.244-.2-.998 0-1.442.444-.444.421-.444 1.442V5.74h3.13v2.663h-3.13v8.434zM76.433 3.92q-.777 0-1.355-.555a1.88 1.88 0 0 1-.576-1.376q0-.8.577-1.354.577-.577 1.354-.577.82 0 1.376.577.577.555.577 1.354 0 .798-.577 1.376-.555.555-1.376.555m-1.51 12.917V5.74h3.04v11.097zm-5.295 0V.191h3.041v16.646zm-3.434.133q-1.865 0-3.063-1.02-1.176-1.044-1.176-2.997v-4.55h-2.242V5.74h2.242V2.655h3.04V5.74h3.13v2.663h-3.13v3.95q0 1.022.444 1.466.444.42 1.443.421.71 0 1.243-.2v2.686q-.8.244-1.931.244m-17.862-.133V5.74h3.04v.81c0 .138.187.198.278.096q1.017-1.15 2.896-1.15 1.998 0 3.13 1.331 1.154 1.31 1.154 3.507v6.503h-3.04v-5.993q0-1.22-.511-1.886-.51-.688-1.443-.688-1.11 0-1.798.799-.666.799-.665 2.352v5.416zM44.547 3.92a1.9 1.9 0 0 1-1.354-.555 1.88 1.88 0 0 1-.577-1.376q0-.8.577-1.354.577-.577 1.354-.577.821 0 1.376.577.577.555.577 1.354 0 .798-.577 1.376-.555.555-1.376.555m-1.51 12.917V5.74h3.042v11.097zm-5.162 0V10.91q0-2.64-1.731-2.641-1 0-1.598.754-.577.754-.622 2.242v5.57h-3.04V10.91q0-2.64-1.732-2.641-1.02 0-1.62.799t-.6 2.352v5.416h-3.04V5.74h3.04v.819c0 .136.184.196.274.093q1.008-1.157 2.679-1.157 2.196 0 3.308 1.814a.154.154 0 0 0 .26-.002q.481-.79 1.337-1.257.976-.555 1.975-.555 1.976 0 3.063 1.31t1.088 3.595v6.437z"/><path fill="#18e299" d="M19.403 7.362V1.35a1.16 1.16 0 0 0-1.16-1.16h-6.008a7.3 7.3 0 0 0-2.748.543A7.1 7.1 0 0 0 7.16 2.295l-.046.046A7.1 7.1 0 0 0 5.29 5.548a7.4 7.4 0 0 1 1.748-.234 7.12 7.12 0 0 1 4.364 1.431c1.131.841 1.99 2 2.458 3.338a7.17 7.17 0 0 1 .178 4.226 7.15 7.15 0 0 0 3.205-1.823l.047-.047a7.3 7.3 0 0 0 1.56-2.328c.365-.87.542-1.805.542-2.749z"/><path fill="#0c8c5e" d="M5.112 7.26A7.12 7.12 0 0 1 7.15 2.324l-5 5.002c-.018.018-.037.028-.056.046A7.12 7.12 0 0 0 .02 11.918a7.15 7.15 0 0 0 1.201 4.508c.086.126.317.167.447.046l3.063-3.055a3.5 3.5 0 0 0 .8-3.66 7.1 7.1 0 0 1-.418-2.497m12.149 5.18a7.16 7.16 0 0 1-3.462 1.88 7.2 7.2 0 0 1-3.938-.242h-.019a3.51 3.51 0 0 0-3.659.792L3.12 17.926a.287.287 0 0 0 .047.447 7.2 7.2 0 0 0 4.506 1.201 7.13 7.13 0 0 0 4.543-2.077l.047-.046 5-5.002z"/><text x="105" y="17" fill="#a1a1aa" font-family="Inter, ui-sans-serif, system-ui, -apple-system, sans-serif" font-size="15" font-weight="500" letter-spacing="-.01em">Starter Kit</text></svg>