<svg xmlns="http://www.w3.org/2000/svg" width="502" height="502" fill="none" viewBox="0 0 502 502"><path fill="#18e299" d="M501.402 185.33V29.962C501.402 13.29 487.876 0 471.453 0H316.156c-24.393 0-48.545 4.832-71.006 14.014-22.461 9.424-42.99 22.955-60.138 40.353l-1.208 1.208c-22.703 22.955-38.884 51.467-47.096 82.879 14.733-3.866 29.948-5.799 45.163-6.041 40.576-.483 80.427 12.565 112.79 36.97 29.224 21.747 51.443 51.709 63.519 86.262 12.559 35.036 14.008 73.214 4.589 109.217 31.156-8.215 59.897-24.405 82.842-47.118l1.207-1.208c17.148-17.156 30.914-37.695 40.333-60.166 9.42-22.472 14.009-46.635 14.009-71.04z"/><path fill="#0c8c5e" d="M132.071 182.706c.241-47.662 19.249-93.4 52.693-127.581L55.557 184.39c-.481.482-.963.722-1.444 1.204-31.52 31.294-50.527 73.18-53.655 117.472-2.888 41.404 7.94 82.326 31.038 116.509 2.203 3.26 8.181 4.332 11.55 1.203l79.16-78.956c24.783-24.794 32.483-61.624 20.693-94.603-7.459-20.461-11.068-42.367-10.828-64.513m313.996 133.841c-24.783 24.313-55.822 41.163-89.507 48.625-33.926 7.463-69.054 5.296-101.777-6.258h-.482c-32.963-11.796-69.776-4.093-94.559 20.461l-79.161 78.956c-3.369 3.37-2.888 8.907 1.203 11.554 34.166 22.869 75.071 33.942 116.456 31.053 44.272-3.129 85.897-22.146 117.416-53.68l1.203-1.204 129.208-129.266z"/></svg>